<svg width="184" height="86" viewBox="0 0 184 86" fill="none" xmlns="http://www.w3.org/2000/svg">
<path d="M-0.180365 55.7114V32.3692H16.1946V35.0217H2.64899V42.5549H13.1884V45.2074H2.64899V53.0589H16.7251V55.7114H-0.180365ZM40.0037 55.7114H36.9975L34.5218 49.2393H23.947L21.4714 55.7114H18.5005L27.5898 32.3692H30.9497L40.0037 55.7114ZM24.9727 46.5867H33.4961L29.2167 35.0925L24.9727 46.5867ZM50.9975 32.0155C53.0488 32.0155 54.8171 32.4399 56.3025 33.2888C57.7879 34.114 59.0258 35.34 60.0161 36.9669L57.6465 38.806C56.7741 37.297 55.7838 36.236 54.6756 35.623C53.5911 34.9864 52.2707 34.6681 50.7145 34.6681C49.4649 34.6681 48.4275 34.8449 47.6022 35.1986C46.8006 35.5522 46.2111 36.0238 45.8339 36.6132C45.4567 37.1791 45.268 37.8275 45.268 38.5584C45.268 39.3837 45.5274 40.1146 46.0461 40.7512C46.5648 41.3642 47.6022 41.8476 49.1584 42.2012L54.2159 43.333C56.4558 43.8281 58.0119 44.5826 58.8843 45.5965C59.7803 46.5867 60.2283 47.8246 60.2283 49.31C60.2283 50.6304 59.851 51.8093 59.0965 52.8467C58.3656 53.8606 57.3282 54.6504 55.9842 55.2163C54.6403 55.7822 53.0606 56.0651 51.245 56.0651C49.5474 56.0651 48.0502 55.8411 46.7534 55.3931C45.4802 54.9216 44.3839 54.2967 43.4643 53.5187C42.5448 52.7406 41.7903 51.8682 41.2008 50.9015L43.6765 48.8856C44.1245 49.7816 44.7022 50.5714 45.4095 51.2552C46.1168 51.9389 46.9656 52.4695 47.9559 52.8467C48.9698 53.2239 50.1251 53.4126 51.4219 53.4126C52.6244 53.4126 53.6618 53.2711 54.5342 52.9882C55.4301 52.6817 56.1139 52.2455 56.5855 51.6796C57.057 51.0901 57.2928 50.3828 57.2928 49.5576C57.2928 48.8031 57.0452 48.1311 56.5501 47.5417C56.055 46.9286 55.1236 46.4689 53.7561 46.1623L48.2742 44.9245C46.836 44.5944 45.6689 44.1464 44.7729 43.5805C43.9005 42.9911 43.2639 42.3073 42.8631 41.5293C42.4858 40.7276 42.2972 39.867 42.2972 38.9475C42.2972 37.6978 42.6391 36.5543 43.3228 35.5169C44.0302 34.4559 45.0322 33.6071 46.329 32.9704C47.6494 32.3338 49.2056 32.0155 50.9975 32.0155ZM80.5239 32.3692V35.0217H72.3895V55.7114H69.5601V35.0217H61.4257V32.3692H80.5239ZM100.436 56.0651C98.7145 56.0651 97.1229 55.6996 95.6611 54.9687C94.2229 54.2378 93.1147 53.2004 92.3366 51.8564L94.7416 50.1234C95.2603 51.208 96.0148 52.0568 97.0051 52.6699C98.0189 53.2829 99.2332 53.5894 100.648 53.5894C101.897 53.5894 102.876 53.3536 103.583 52.8821C104.291 52.3869 104.644 51.7503 104.644 50.9722C104.644 50.4771 104.479 50.0291 104.149 49.6283C103.843 49.2039 103.241 48.8974 102.345 48.7088L98.1014 47.8246C96.3802 47.4709 95.1424 46.8815 94.3879 46.0562C93.657 45.231 93.2915 44.2054 93.2915 42.9793C93.2915 42.0126 93.5627 41.1284 94.105 40.3268C94.6708 39.5251 95.4607 38.8885 96.4746 38.417C97.512 37.9218 98.7262 37.6743 100.117 37.6743C101.862 37.6743 103.336 38.0161 104.538 38.6999C105.741 39.3837 106.637 40.3504 107.226 41.6L104.857 43.1561C104.456 42.1187 103.807 41.3642 102.911 40.8927C102.015 40.3975 101.084 40.1499 100.117 40.1499C99.2685 40.1499 98.5376 40.2678 97.9246 40.5036C97.3351 40.7394 96.8754 41.0695 96.5453 41.4939C96.2388 41.8947 96.0855 42.3545 96.0855 42.8732C96.0855 43.3919 96.2623 43.8753 96.616 44.3233C96.9697 44.7477 97.6299 45.0542 98.5966 45.2428L103.017 46.1623C104.668 46.4924 105.823 47.0347 106.483 47.7892C107.144 48.5437 107.474 49.4633 107.474 50.5478C107.474 51.656 107.179 52.6345 106.59 53.4833C106 54.3085 105.175 54.9451 104.114 55.3931C103.053 55.8411 101.827 56.0651 100.436 56.0651ZM115.921 33.0058V50.8308C115.921 51.7032 116.169 52.3516 116.664 52.776C117.159 53.2004 117.796 53.4126 118.574 53.4126C119.257 53.4126 119.847 53.2947 120.342 53.0589C120.837 52.8231 121.285 52.5048 121.686 52.104L122.676 54.4736C122.134 54.9687 121.485 55.3578 120.731 55.6407C120 55.9236 119.151 56.0651 118.185 56.0651C117.289 56.0651 116.452 55.9118 115.674 55.6053C114.895 55.2752 114.271 54.7683 113.799 54.0845C113.351 53.3772 113.115 52.4577 113.092 51.3259V33.7839L115.921 33.0058ZM122.358 38.0279V40.4683H109.555V38.0279H122.358ZM135.919 44.2879C135.919 42.9675 135.566 41.9537 134.858 41.2463C134.151 40.5154 133.149 40.1499 131.852 40.1499C130.626 40.1499 129.589 40.4211 128.74 40.9634C127.891 41.4821 127.266 42.3309 126.865 43.5098L124.567 42.0951C125.038 40.7748 125.911 39.7138 127.184 38.9121C128.457 38.0869 130.037 37.6743 131.923 37.6743C133.196 37.6743 134.351 37.8982 135.389 38.3462C136.426 38.7706 137.24 39.4308 137.829 40.3268C138.442 41.1992 138.749 42.3309 138.749 43.722V52.2808C138.749 53.1296 139.197 53.554 140.093 53.554C140.541 53.554 140.977 53.4951 141.401 53.3772L141.26 55.6053C140.788 55.8411 140.175 55.959 139.421 55.959C138.737 55.959 138.124 55.8293 137.582 55.57C137.039 55.3106 136.615 54.9216 136.308 54.4028C136.002 53.8606 135.849 53.1886 135.849 52.3869V52.0333L136.556 52.1394C136.273 53.0589 135.79 53.8134 135.106 54.4028C134.422 54.9687 133.656 55.3931 132.807 55.6761C131.958 55.9354 131.121 56.0651 130.296 56.0651C129.259 56.0651 128.292 55.8883 127.396 55.5346C126.5 55.1809 125.781 54.6504 125.239 53.9431C124.72 53.2122 124.46 52.3162 124.46 51.2552C124.46 49.9348 124.897 48.8502 125.769 48.0014C126.665 47.129 127.903 46.5396 129.483 46.2331L136.485 44.8538V47.188L130.791 48.3551C129.636 48.5909 128.775 48.921 128.209 49.3454C127.644 49.7698 127.361 50.3592 127.361 51.1137C127.361 51.8446 127.644 52.4459 128.209 52.9174C128.799 53.3654 129.624 53.5894 130.685 53.5894C131.369 53.5894 132.017 53.5069 132.63 53.3418C133.267 53.1532 133.833 52.8821 134.328 52.5284C134.823 52.1511 135.212 51.6914 135.495 51.1491C135.778 50.5832 135.919 49.923 135.919 49.1685V44.2879ZM158.152 38.0279L149.84 58.6823C149.392 59.8376 148.897 60.7453 148.355 61.4055C147.836 62.0893 147.247 62.5726 146.587 62.8556C145.95 63.1621 145.207 63.3153 144.358 63.3153C143.557 63.3153 142.814 63.1974 142.13 62.9617C141.47 62.7495 140.881 62.4547 140.362 62.0775L141.14 59.6018C141.612 60.0262 142.107 60.3327 142.626 60.5213C143.168 60.7335 143.698 60.8396 144.217 60.8396C144.83 60.8396 145.408 60.651 145.95 60.2738C146.492 59.8965 146.987 59.1302 147.435 57.9749L148.355 55.6761L146.587 51.4674L140.963 38.0279H144.182L148.603 49.5576L149.699 52.7052L150.972 49.2039L155.11 38.0279H158.152Z" fill="#232323"/>
<path d="M69.002 0V24.3281H73.4409V4.5052H179.089V81.0936H73.4409V64.8748H69.002V85.5988H183.528V0L69.002 0Z" fill="#232323"/>
</svg>
