<svg width="150" height="68" viewBox="0 0 150 68" fill="none" xmlns="http://www.w3.org/2000/svg">
<g clip-path="url(#clip0_242_110)">
<path d="M82.95 18.68H66.36C66.5 20.32 67.07 21.6 68.08 22.53C69.09 23.46 70.33 23.92 71.81 23.92C73.94 23.92 75.46 23.01 76.35 21.18H82.53C81.88 23.36 80.62 25.16 78.76 26.57C76.9 27.98 74.62 28.68 71.92 28.68C69.73 28.68 67.78 28.2 66.04 27.23C64.3 26.26 62.95 24.89 61.98 23.11C61.01 21.33 60.53 19.29 60.53 16.97C60.53 14.65 61.01 12.56 61.96 10.79C62.92 9.02001 64.25 7.65001 65.97 6.69001C67.69 5.73001 69.67 5.26001 71.91 5.26001C74.15 5.26001 76 5.72001 77.7 6.65001C79.41 7.58001 80.73 8.90001 81.67 10.6C82.61 12.31 83.08 14.27 83.08 16.48C83.08 17.3 83.03 18.04 82.92 18.69L82.95 18.68ZM77.18 14.83C77.15 13.36 76.62 12.17 75.58 11.29C74.54 10.4 73.27 9.96001 71.77 9.96001C70.35 9.96001 69.16 10.39 68.19 11.25C67.22 12.11 66.63 13.3 66.41 14.83H77.18Z" fill="#2D2D2D"/>
<path d="M87.1901 10.77C88.1001 8.99999 89.3501 7.62999 90.9201 6.66999C92.4901 5.70999 94.2401 5.23999 96.1801 5.23999C97.8701 5.23999 99.3501 5.57999 100.62 6.25999C101.89 6.93999 102.91 7.79999 103.67 8.83999V5.59999H109.44V28.29H103.67V24.97C102.93 26.03 101.92 26.92 100.62 27.61C99.3201 28.31 97.8301 28.65 96.1301 28.65C94.2201 28.65 92.4801 28.16 90.9101 27.18C89.3401 26.2 88.1001 24.81 87.1801 23.02C86.2601 21.23 85.8101 19.18 85.8101 16.86C85.8101 14.54 86.2701 12.53 87.1801 10.76L87.1901 10.77ZM102.85 13.37C102.3 12.37 101.57 11.61 100.64 11.08C99.7101 10.55 98.7101 10.28 97.6501 10.28C96.5901 10.28 95.6001 10.54 94.7001 11.06C93.8001 11.58 93.0701 12.34 92.5101 13.33C91.9501 14.33 91.6701 15.51 91.6701 16.87C91.6701 18.23 91.9501 19.43 92.5101 20.45C93.0701 21.47 93.8101 22.26 94.7201 22.8C95.6301 23.35 96.6101 23.62 97.6501 23.62C98.6901 23.62 99.7101 23.35 100.64 22.82C101.57 22.29 102.3 21.52 102.85 20.53C103.4 19.53 103.67 18.34 103.67 16.95C103.67 15.56 103.4 14.36 102.85 13.37Z" fill="#2D2D2D"/>
<path d="M118.74 27.67C117.27 27 116.1 26.09 115.24 24.95C114.38 23.8 113.91 22.53 113.83 21.14H119.6C119.71 22.01 120.14 22.74 120.89 23.31C121.64 23.88 122.57 24.17 123.69 24.17C124.81 24.17 125.64 23.95 126.25 23.51C126.86 23.07 127.17 22.51 127.17 21.83C127.17 21.09 126.79 20.54 126.04 20.17C125.29 19.8 124.1 19.4 122.46 18.96C120.77 18.55 119.38 18.13 118.3 17.69C117.22 17.25 116.29 16.58 115.51 15.68C114.73 14.78 114.34 13.56 114.34 12.03C114.34 10.77 114.7 9.63001 115.43 8.59001C116.15 7.55001 117.19 6.73001 118.54 6.13001C119.89 5.53001 121.48 5.23001 123.31 5.23001C126.01 5.23001 128.17 5.91001 129.78 7.26001C131.39 8.61001 132.28 10.43 132.44 12.73H126.95C126.87 11.83 126.49 11.11 125.82 10.58C125.15 10.05 124.26 9.78001 123.14 9.78001C122.1 9.78001 121.3 9.97001 120.74 10.35C120.18 10.73 119.9 11.26 119.9 11.95C119.9 12.71 120.28 13.3 121.05 13.69C121.81 14.09 123 14.49 124.61 14.9C126.25 15.31 127.6 15.73 128.66 16.17C129.73 16.61 130.65 17.28 131.42 18.2C132.2 19.11 132.6 20.32 132.63 21.82C132.63 23.13 132.27 24.3 131.54 25.34C130.82 26.38 129.78 27.19 128.43 27.78C127.08 28.37 125.5 28.66 123.7 28.66C121.9 28.66 120.18 28.33 118.7 27.66L118.74 27.67Z" fill="#2D2D2D"/>
<path d="M144.05 10.32V21.3C144.05 22.06 144.23 22.62 144.6 22.96C144.97 23.3 145.59 23.47 146.46 23.47H149.12V28.3H145.52C140.69 28.3 138.27 25.95 138.27 21.26V10.33H135.57V5.62H138.27V0H144.04V5.61H149.12V10.32H144.04H144.05Z" fill="#2D2D2D"/>
<path d="M65.71 56.44C64.24 55.77 63.07 54.86 62.21 53.72C61.35 52.58 60.88 51.3 60.8 49.91H66.57C66.68 50.78 67.1101 51.51 67.8601 52.08C68.6101 52.65 69.5401 52.94 70.6601 52.94C71.7801 52.94 72.6101 52.72 73.2201 52.28C73.8301 51.84 74.14 51.28 74.14 50.6C74.14 49.86 73.7601 49.31 73.0101 48.94C72.2601 48.57 71.07 48.17 69.43 47.73C67.74 47.32 66.35 46.9 65.27 46.46C64.19 46.02 63.26 45.35 62.48 44.45C61.7 43.55 61.3101 42.33 61.3101 40.8C61.3101 39.54 61.6701 38.4 62.4001 37.36C63.1201 36.32 64.1601 35.5 65.5101 34.9C66.8601 34.3 68.45 34 70.28 34C72.98 34 75.14 34.68 76.75 36.03C78.36 37.38 79.2501 39.2 79.4101 41.5H73.92C73.84 40.6 73.4601 39.88 72.7901 39.35C72.1201 38.82 71.2301 38.55 70.1101 38.55C69.0701 38.55 68.27 38.74 67.71 39.12C67.15 39.5 66.8701 40.03 66.8701 40.72C66.8701 41.48 67.25 42.07 68.02 42.46C68.78 42.86 69.9701 43.26 71.5801 43.67C73.2201 44.08 74.57 44.5 75.63 44.94C76.7 45.38 77.62 46.05 78.39 46.97C79.17 47.88 79.57 49.09 79.6 50.59C79.6 51.9 79.2401 53.08 78.5101 54.11C77.7901 55.15 76.7501 55.96 75.4001 56.55C74.0501 57.14 72.47 57.43 70.67 57.43C68.87 57.43 67.15 57.1 65.67 56.43L65.71 56.44Z" fill="#2D2D2D"/>
<path d="M91.02 39.09V50.07C91.02 50.83 91.2 51.39 91.57 51.73C91.94 52.07 92.56 52.24 93.43 52.24H96.09V57.07H92.49C87.66 57.07 85.24 54.72 85.24 50.03V39.09H82.54V34.38H85.24V28.77H91.01V34.38H96.09V39.09H91.01H91.02Z" fill="#2D2D2D"/>
<path d="M100.13 39.54C101.04 37.77 102.29 36.4 103.86 35.44C105.43 34.48 107.18 34.01 109.12 34.01C110.81 34.01 112.3 34.35 113.56 35.03C114.83 35.71 115.85 36.57 116.61 37.61V34.37H122.38V57.06H116.61V53.74C115.87 54.8 114.85 55.69 113.56 56.38C112.26 57.08 110.77 57.42 109.07 57.42C107.16 57.42 105.42 56.93 103.85 55.95C102.28 54.97 101.04 53.58 100.12 51.79C99.21 50 98.75 47.95 98.75 45.63C98.75 43.31 99.21 41.3 100.12 39.53L100.13 39.54ZM115.8 42.14C115.25 41.14 114.52 40.38 113.59 39.85C112.66 39.32 111.66 39.05 110.6 39.05C109.54 39.05 108.55 39.31 107.65 39.83C106.75 40.35 106.02 41.11 105.46 42.1C104.9 43.1 104.62 44.28 104.62 45.64C104.62 47 104.9 48.2 105.46 49.22C106.02 50.24 106.76 51.03 107.67 51.57C108.58 52.12 109.56 52.39 110.6 52.39C111.64 52.39 112.66 52.12 113.59 51.59C114.52 51.06 115.26 50.29 115.8 49.3C116.35 48.3 116.62 47.11 116.62 45.72C116.62 44.33 116.35 43.13 115.8 42.14Z" fill="#2D2D2D"/>
<path d="M149.71 34.38L135.66 67.8H129.56L134.47 56.5L125.38 34.38H131.81L137.67 50.23L143.61 34.38H149.71Z" fill="#2D2D2D"/>
<path d="M11.08 45.82V33.46V23.28H3.37V53.3H33.93V45.82H22.06H11.08Z" fill="#F9BFC6"/>
<path d="M25.07 23.28H11.09H23.09V39.3H33.94V45.82H36.32C38.03 31.66 28.93 24.95 25.08 23.28H25.07Z" fill="#EA7071"/>
<path d="M23.08 39.3V23.28H11.08V33.46V45.82H22.06H33.93V39.3H23.08Z" fill="#EA7071"/>
<path d="M53.03 23.28V14.88C53.03 8.96999 48.24 4.17999 42.33 4.17999H0.03L0 23.28H21.89H25.16V12.85C34.81 12.85 44.09 19.9 42.89 31.81H33.93V57.26H53.04V23.28H53.03Z" fill="#E55959"/>
</g>
<defs>
<clipPath id="clip0_242_110">
<rect width="149.71" height="67.8" fill="white"/>
</clipPath>
</defs>
</svg>
