<svg width="99" height="99" viewBox="0 0 99 99" fill="none" xmlns="http://www.w3.org/2000/svg">
<path d="M20.7461 77.6804V54.6463V35.6748H6.37769V91.6201H63.3294V77.6804H41.2084H20.7461Z" fill="#F9BFC6"/>
<path d="M46.8178 35.6748H20.7646H43.1279V65.5297H63.348V77.6804H67.7833C70.9701 51.2918 54.0113 38.787 46.8364 35.6748H46.8178Z" fill="#EA7071"/>
<path d="M43.1093 65.5297V35.6748H20.7461V54.6463V77.6804H41.2084H63.3294V65.5297H43.1093Z" fill="#EA7071"/>
<path d="M98.924 35.6748V20.0205C98.924 9.00661 89.9973 0.0799561 78.9835 0.0799561H0.153076L0.097168 35.6748H40.8914H46.9854V16.2374C64.9692 16.2374 82.2634 29.3758 80.0271 51.5713H63.3292V99H98.9426V35.6748H98.924Z" fill="#E55959"/>
</svg>
